<?xml version="1.0" encoding="utf-8"?>
<!-- Generator: Adobe Illustrator 25.0.0, SVG Export Plug-In . SVG Version: 6.00 Build 0)  -->
<svg version="1.1" id="Layer_1" xmlns="http://www.w3.org/2000/svg" xmlns:xlink="http://www.w3.org/1999/xlink" x="0px" y="0px"
	 viewBox="0 0 640 480" style="enable-background:new 0 0 640 480;" xml:space="preserve">
<style type="text/css">
	.st0{fill-rule:evenodd;clip-rule:evenodd;fill:#F31930;}
	.st1{fill-rule:evenodd;clip-rule:evenodd;fill:#FFFFFF;}
	.st2{fill-rule:evenodd;clip-rule:evenodd;fill:#F31830;}
</style>
<g>
	<path class="st0" d="M0,0h640v480H0V0z"/>
	<path class="st1" d="M407,247.5c0,66.2-54.6,119.9-122,119.9s-122-53.7-122-119.9s54.6-119.9,122-119.9S407,181.3,407,247.5
		L407,247.5z"/>
	<path class="st2" d="M413.1,247.5c0,53-43.7,95.9-97.6,95.9s-97.6-42.9-97.6-95.9s43.7-95.9,97.6-95.9S413.1,194.5,413.1,247.5
		L413.1,247.5z"/>
	<path class="st1" d="M430.7,191.5l-1,44.3L388.4,247l40.8,14.5l-1,40.6l26.6-31.7l40.2,13.9l-23.2-34.1l28.4-33.9l-43.5,12
		L430.7,191.5L430.7,191.5z"/>
</g>
</svg>
